<?xml version="1.0" encoding="UTF-8" standalone="no"?>
<!-- Created with Inkscape (http://www.inkscape.org/) -->

<svg
   version="1.1"
   id="svg2"
   width="2666.6667"
   height="2666.6667"
   viewBox="0 0 2666.6667 2666.6667"
   sodipodi:docname="vecteezy_upload-file-icon-trendy-upload-file-logo-concept-on-white_7624107.eps"
   xmlns:inkscape="http://www.inkscape.org/namespaces/inkscape"
   xmlns:sodipodi="http://sodipodi.sourceforge.net/DTD/sodipodi-0.dtd"
   xmlns="http://www.w3.org/2000/svg"
   xmlns:svg="http://www.w3.org/2000/svg">
  <defs
     id="defs6" />
  <sodipodi:namedview
     id="namedview4"
     pagecolor="#ffffff"
     bordercolor="#000000"
     borderopacity="0.25"
     inkscape:showpageshadow="2"
     inkscape:pageopacity="0.0"
     inkscape:pagecheckerboard="0"
     inkscape:deskcolor="#d1d1d1" />
  <g
     id="g8"
     inkscape:groupmode="layer"
     inkscape:label="ink_ext_XXXXXX"
     transform="matrix(1.3333333,0,0,-1.3333333,0,2666.6667)">
    <g
       id="g10"
       transform="scale(0.1)">
      <path
         d="m 13163.8,7588 h -484.7 v 1514 c 0,56.4 -45.7,102.1 -102.2,102.1 h -1608.7 v 879.6 h 393 c 36.5,0 70.2,19.4 88.3,51 18.4,31.7 18.4,70.6 0,102.2 l -1361.1,2357.6 c -36.3,63.2 -140.46,63.2 -176.76,0 L 8550.46,10236.9 c -18.35,-31.6 -18.35,-70.5 0,-102.2 18.16,-31.6 51.87,-51 88.37,-51 h 392.75 v -464 H 7423.07 c -56.45,0 -102.12,-45.7 -102.12,-102.1 V 8104.5 7588 H 6105.99 c -950.07,0 -1723.01,773 -1723.01,1723.1 0,960.5 658.66,1688.1 1541.24,1720.2 16.49,-18.8 39.41,-32 66.27,-34.7 3.39,-0.3 6.79,-0.5 10.17,-0.5 51.87,0 96.15,39.4 101.54,92.1 161.16,1634.2 1523.13,2866.6 3167.75,2866.6 1111.95,0 2143.05,-584.6 2719.35,-1531.2 -274.4,-135.6 -527.6,-317 -746.4,-545.8 -38.9,-40.8 -37.5,-105.4 3.2,-144.4 40.9,-39.2 105.3,-37.6 144.4,3.2 229.8,240.3 499.1,426.8 793.6,555.1 0.2,0.1 0.5,0.1 0.7,0.2 0.1,0 0.2,0.2 0.3,0.2 304.2,132.4 635.3,202.5 978.7,202.5 1352.8,0 2453.2,-1100.6 2453.2,-2453.3 C 15617,8688.6 14516.6,7588 13163.8,7588 Z m -689,1200.4 h -1506.6 v 211.5 h 1506.6 z M 10764,8999.9 V 8788.4 H 9251.8 c -5.56,0 -10.53,-2.6 -15.96,-3.5 V 9306 l 276.26,-276.2 c 19.15,-19.2 45.08,-29.9 72.21,-29.9 z m -1137.4,204.2 -385.77,385.7 c -1.45,1.4 -3.47,2 -4.99,3.3 v 592.7 c 0,56.5 -45.68,102.1 -102.13,102.1 h -317.95 l 1184.24,2051.3 1184.2,-2051.3 h -318.1 c -56.5,0 -102.1,-45.6 -102.1,-102.1 V 9204.1 Z M 7525.2,8206.6 V 9415.5 H 9031.58 V 8586.3 L 8706.05,8206.6 Z M 12474.8,7588 H 7525.2 v 414.3 h 1227.93 c 29.72,0 58.04,13.1 77.59,35.7 l 373.58,436 c 1.57,1.6 2.74,3.3 4.21,4.9 l 90.16,105.3 h 3176.13 z m 0,-1542.8 H 7525.2 v 1338.6 h 4949.6 z m 689,6653.6 c -344.9,0 -677.7,-66.9 -987.2,-190.5 -610.5,1019.8 -1715,1650.7 -2906.65,1650.7 -1706.89,0 -3124.13,-1248.7 -3352.65,-2923.8 -995.38,-35.5 -1738.57,-849.4 -1738.57,-1924.1 0,-1062.7 864.49,-1927.3 1927.26,-1927.3 H 7320.95 V 5943.1 c 0,-56.4 45.67,-102.1 102.12,-102.1 h 5153.83 c 56.5,0 102.2,45.7 102.2,102.1 v 1440.7 h 484.7 c 1465.3,0 2657.5,1192.1 2657.5,2657.5 0,1465.4 -1192.2,2657.5 -2657.5,2657.5"
         style="fill:#100f0d;fill-opacity:1;fill-rule:nonzero;stroke:none"
         id="path12" />
      <path
         d="m 13815,11736.7 c -1093.1,546.3 -1929.2,-270.8 -1937.6,-279.2 -39.9,-39.8 -39.9,-104.3 0,-144.2 19.9,-20 46.1,-30 72.2,-30 26.1,0 52.1,9.9 72,29.6 30.1,29.7 742.8,720.8 1702.1,241.1 50.8,-25.2 111.7,-4.9 137,45.6 25.1,50.5 4.8,111.8 -45.7,137.1"
         style="fill:#100f0d;fill-opacity:1;fill-rule:nonzero;stroke:none"
         id="path14" />
      <path
         d="m 7733.64,12770.1 c -816.02,-543.9 -825.39,-1350.7 -825.39,-1384.8 0,-56.2 45.48,-101.8 101.93,-102 h 0.19 c 56.25,0 101.73,45.6 102.13,101.7 0.2,29.7 12.37,733.9 734.44,1215.2 46.88,31.3 59.64,94.6 28.33,141.6 -31.52,47.1 -95.35,59.4 -141.63,28.3"
         style="fill:#100f0d;fill-opacity:1;fill-rule:nonzero;stroke:none"
         id="path16" />
    </g>
  </g>
</svg>
